<svg id="Layer_1_copy" data-name="Layer 1 copy" xmlns="http://www.w3.org/2000/svg" viewBox="0 0 445.11 86.67"><title>final</title><path d="M94.37,50.9a38.72,38.72,0,0,1,11.13,1.43v4S101.15,56,97.1,56c-2.93,0-4.32.18-4.32,7.3,0,6.19,1,7.08,4.32,7.08,4.19,0,8.72-.43,8.72-0.43v4c-3.54,1.8-7.67,1.5-11.45,1.55-4.51,0-8-2.36-8-12.34S89.72,50.9,94.37,50.9Z" transform="translate(-13.44 -10.67)" fill="#fff"/><path d="M109.25,51.13h5.37l1,3.05a10,10,0,0,1,6.94-3.3,8.43,8.43,0,0,1,2.69.29v6.15c-0.65-.06-2.12-0.12-3.49-0.12-2.64,0-4.56.43-6.14,2.69V75.3h-6.37V51.13Z" transform="translate(-13.44 -10.67)" fill="#fff"/><path d="M127.88,51.13h6.37v16.2c0,2.4,1.07,3.27,2.67,3.27a8.42,8.42,0,0,0,5.84-2.09V51.13h6.37V75.3H144l-1.25-2.57c-2.4,1.44-4,3-7.67,3-5.63,0-7.22-3.88-7.22-8.49V51.13Z" transform="translate(-13.44 -10.67)" fill="#fff"/><path d="M153.28,51.13h5.12l1.25,2.57c2.08-1.49,4-3,7.67-3,5.63,0,7.22,3.88,7.22,8.49V75.3h-6.37V59.11c0-2.4-1.07-3.27-2.67-3.27a8.41,8.41,0,0,0-5.84,2.09V75.3h-6.37V51.13Z" transform="translate(-13.44 -10.67)" fill="#fff"/><path d="M185.93,50.9a38.72,38.72,0,0,1,11.13,1.43v4s-4.35-.27-8.4-0.27c-2.93,0-4.32.18-4.32,7.3,0,6.19,1,7.08,4.32,7.08,4.19,0,8.72-.43,8.72-0.43v4c-3.54,1.8-7.67,1.5-11.45,1.55-4.51,0-8-2.36-8-12.34S181.29,50.9,185.93,50.9Z" transform="translate(-13.44 -10.67)" fill="#fff"/><path d="M200.81,39.66h6.35v14c2-1.44,4-3,7.7-3,5.63,0,7.22,3.88,7.22,8.49V75.3H215.7V59.11c0-2.4-1.05-3.27-2.67-3.27a8.41,8.41,0,0,0-5.84,2.09V75.3h-6.37V39.66Z" transform="translate(-13.44 -10.67)" fill="#fff"/><path d="M230.51,51.13L234.68,68a2.18,2.18,0,0,0,2.43,1.78L242,51.13h6.63L240.21,83,236.9,87.6h-4.55l3.4-12.29c-3.36,0-6-1.69-7.19-6.16l-4.74-18h6.69Z" transform="translate(-13.44 -10.67)" fill="#fff"/><path d="M252,51.13h3.19l1,3.05c2.48-1.6,4.91-3.32,8.45-3.32a10,10,0,0,1,3.19.34v4.1a22.58,22.58,0,0,0-3.4-.23c-3.37,0-5.25.81-8.23,2.65V75.3H252V51.13Z" transform="translate(-13.44 -10.67)" fill="#fff"/><path d="M280.64,50.9c8.2,0,10.76,3.05,10.76,12.66,0,9-2.52,12-10.76,12s-10.76-3.32-10.76-12C269.88,53.67,272.65,50.9,280.64,50.9Zm0,20.79c4.56,0,6.57-.6,6.57-8.13,0-8.14-1.66-8.81-6.57-8.81-4.74,0-6.57.64-6.57,8.81C274.07,71.12,276.3,71.68,280.64,71.68Z" transform="translate(-13.44 -10.67)" fill="#fff"/><path d="M296,39.56h4.11v13a25.89,25.89,0,0,1,8.53-1.75c6.83,0,7.95,6,7.95,12.57,0,6-1.52,12.25-7.95,12.25a18.15,18.15,0,0,1-8.48-2.89l-1,2.62H296V39.56Zm12.19,32.08c2.71,0,4.21-2.6,4.21-8.38,0-7.08-1.54-8.69-4.21-8.69a26.82,26.82,0,0,0-8,1.11v14A19,19,0,0,0,308.22,71.64Z" transform="translate(-13.44 -10.67)" fill="#fff"/><path d="M331.13,50.9c8.2,0,10.76,3.05,10.76,12.66,0,9-2.53,12-10.76,12s-10.76-3.32-10.76-12C320.38,53.67,323.14,50.9,331.13,50.9Zm0,20.79c4.55,0,6.57-.6,6.57-8.13,0-8.14-1.66-8.81-6.57-8.81-4.74,0-6.57.64-6.57,8.81C324.57,71.12,326.8,71.68,331.13,71.68Z" transform="translate(-13.44 -10.67)" fill="#fff"/><path d="M343.92,52l4.34-1,0.89-6.74h3.3v6.74h6.61v3.78h-6.61V66.38c0,3.85,1,4.72,2.45,5.11,0,0,3.46,1,3.78,1v2.82h-4.43c-3.53,0-6-2.2-6-8.62V54.86h-4.34V52Z" transform="translate(-13.44 -10.67)" fill="#fff"/><path d="M363.94,71.25A1,1,0,0,1,365,70.11h2.82A1,1,0,0,1,369,71.25v3a1,1,0,0,1-1.14,1H365a1,1,0,0,1-1.09-1v-3Z" transform="translate(-13.44 -10.67)" fill="#fff"/><path d="M382.67,50.9a57.51,57.51,0,0,1,10.59,1.25V55s-5.79-.27-9.84-0.27c-2.79,0-4.52.41-4.52,8.61,0,6.75,1.25,8.32,4.52,8.32,4.19,0,10.16-.48,10.16-0.48v2.95c-3.65,1.25-7.12,1.34-10.9,1.38-4.51,0-8-1.9-8-12.34S378,50.9,382.67,50.9Z" transform="translate(-13.44 -10.67)" fill="#fff"/><path d="M407.22,50.9c8.2,0,10.76,3.05,10.76,12.66,0,9-2.53,12-10.76,12s-10.76-3.32-10.76-12C396.46,53.67,399.23,50.9,407.22,50.9Zm0,20.79c4.55,0,6.57-.6,6.57-8.13,0-8.14-1.66-8.81-6.57-8.81-4.74,0-6.57.64-6.57,8.81C400.65,71.12,402.88,71.68,407.22,71.68Z" transform="translate(-13.44 -10.67)" fill="#fff"/><path d="M422.62,51.13h3.12L426.8,54c2.61-1.58,4.7-3.13,8.31-3.13,3,0,5.54,1.28,6.58,3.44a15,15,0,0,1,9.46-3.44c4.5,0,7.4,3.27,7.4,8V75.3h-4.19V58.79c0-2.57-1.55-4.11-3.71-4.11a12.74,12.74,0,0,0-8.1,2.37c0,0.05,0,1.63,0,1.69V75.3h-4.19V58.79c0-2.57-1.58-4.11-3.75-4.11-3.23,0-4.75.8-7.81,2.42V75.3h-4.19V51.13Z" transform="translate(-13.44 -10.67)" fill="#fff"/><path d="M53.59,45.26a3.12,3.12,0,1,1,3.12,3.15,3.13,3.13,0,0,1-3.12-3.15h0ZM43.88,18.47h0v4.31h4V18.6a4.16,4.16,0,1,0-3.93-.13h0ZM35.22,48.41a3.15,3.15,0,1,0-3.12-3.15,3.13,3.13,0,0,0,3.12,3.15h0ZM46,97.33a10.86,10.86,0,0,0,10.2-7.22H35.76A10.85,10.85,0,0,0,46,97.33h0ZM13.44,84.55a4.18,4.18,0,0,1,2.36-3.77V63a6.62,6.62,0,0,1,6.15-6.62V47.71S22.79,32,35.76,27.09a32.85,32.85,0,0,1,10.42-2.15A32.83,32.83,0,0,1,56.6,27.09c13,4.89,13.81,20.62,13.81,20.62v8.63A6.62,6.62,0,0,1,76.56,63V80.79a4.16,4.16,0,1,1-3.59,0V68.87a6.51,6.51,0,0,1-2.55.7v4.14c0,0.34.05,0.67,0.05,1s0,0.72-.05,1.08v0.1h0a14.4,14.4,0,0,1-12.7,13.18v0.1H34.64v-0.1A14.39,14.39,0,0,1,22,75.9h0V75.8c0-.36-0.05-0.72-0.05-1.08s0-.67.05-1V69.57a6.48,6.48,0,0,1-2.55-.7V80.79a4.18,4.18,0,1,1-6,3.76h0ZM53.12,62.62a2,2,0,1,0-2,2,2,2,0,0,0,2-2h0Zm4.93,0a2,2,0,1,0-2,2,2,2,0,0,0,2-2h0Zm4.93,0a2,2,0,1,0-2,2,2,2,0,0,0,2-2h0ZM29.33,45.85c0,5.36,4.16,5.71,4.16,5.71a16.85,16.85,0,0,0,5.89,0c1.27-.22,5.95-0.63,6.69-0.69h0.23c0.74,0.06,5.42.47,6.69,0.69a16.87,16.87,0,0,0,5.89,0S63,51.21,63,45.85c0,0,0-5.94-4.16-9.55S48.78,32,46.4,32H46c-2.37,0-8.44.8-12.47,4.31s-4.16,9.55-4.16,9.55h0Zm0,0" transform="translate(-13.44 -10.67)" fill="#fff"/></svg>