<svg id="Layer_1_copy" data-name="Layer 1 copy" xmlns="http://www.w3.org/2000/svg" viewBox="0 0 618 800.67"><defs><style>.cls-1{fill:#151515;}.cls-2{font-size:45.53px;font-family:Exo;}.cls-2,.cls-4{fill:#fff;}.cls-3{font-weight:700;}</style></defs><title>logo</title><rect class="cls-1" width="618" height="800.67"/><text class="cls-2" transform="translate(171.01 316.97)"><tspan class="cls-3">crunc</tspan><tspan class="cls-3" x="114.06" y="0">h</tspan><tspan class="cls-3" x="138.42" y="0">y</tspan><tspan x="164.73" y="0">r</tspan><tspan x="183.08" y="0">o</tspan><tspan x="208.81" y="0">b</tspan><tspan x="233.58" y="0">o</tspan><tspan x="258.39" y="0">t.</tspan><tspan x="287.9" y="0">c</tspan><tspan x="309.66" y="0">om</tspan></text><path class="cls-4" d="M53.59,45.26a3.12,3.12,0,1,1,3.12,3.15,3.13,3.13,0,0,1-3.12-3.15h0ZM43.88,18.47h0v4.31h4V18.6a4.16,4.16,0,1,0-3.93-.13h0ZM35.22,48.41a3.15,3.15,0,1,0-3.12-3.15,3.13,3.13,0,0,0,3.12,3.15h0ZM46,97.33a10.86,10.86,0,0,0,10.2-7.22H35.76A10.85,10.85,0,0,0,46,97.33h0ZM13.44,84.55a4.18,4.18,0,0,1,2.36-3.77V63a6.62,6.62,0,0,1,6.15-6.62V47.71S22.79,32,35.76,27.09a32.85,32.85,0,0,1,10.42-2.15A32.83,32.83,0,0,1,56.6,27.09c13,4.89,13.81,20.62,13.81,20.62v8.63A6.62,6.62,0,0,1,76.56,63V80.79a4.16,4.16,0,1,1-3.59,0V68.87a6.51,6.51,0,0,1-2.55.7v4.14c0,0.34.05,0.67,0.05,1s0,0.72-.05,1.08v0.1h0a14.4,14.4,0,0,1-12.7,13.18v0.1H34.64v-0.1A14.39,14.39,0,0,1,22,75.9h0V75.8c0-.36-0.05-0.72-0.05-1.08s0-.67.05-1V69.57a6.48,6.48,0,0,1-2.55-.7V80.79a4.18,4.18,0,1,1-6,3.76h0ZM53.12,62.62a2,2,0,1,0-2,2,2,2,0,0,0,2-2h0Zm4.93,0a2,2,0,1,0-2,2,2,2,0,0,0,2-2h0Zm4.93,0a2,2,0,1,0-2,2,2,2,0,0,0,2-2h0ZM29.33,45.85c0,5.36,4.16,5.71,4.16,5.71a16.85,16.85,0,0,0,5.89,0c1.27-.22,5.95-0.63,6.69-0.69h0.23c0.74,0.06,5.42.47,6.69,0.69a16.87,16.87,0,0,0,5.89,0S63,51.21,63,45.85c0,0,0-5.94-4.16-9.55S48.78,32,46.4,32H46c-2.37,0-8.44.8-12.47,4.31s-4.16,9.55-4.16,9.55h0Zm0,0" transform="translate(86.33 241.67)"/></svg>